<svg width="49" height="44" viewBox="0 0 49 44" fill="none" xmlns="http://www.w3.org/2000/svg">
<path fill-rule="evenodd" clip-rule="evenodd" d="M4.12213 32.8772C4.60545 29.7853 3.25319 26.6158 1.79811 23.6997C1.60829 23.3196 1.41741 22.9438 1.22904 22.5729C0.830641 21.7885 0.443482 21.0261 0.101358 20.2924C-0.00147482 20.0702 -0.0271831 19.8168 0.0293751 19.5738L0.949732 15.7166C1.03714 15.3444 1.31479 15.0445 1.67985 14.9307C3.6491 14.3103 9.93735 12.0767 10.5029 8.7935C10.5132 8.72628 10.5492 8.66941 10.5955 8.62288L15.9582 3.42664C16.092 3.29738 16.3079 3.31289 16.4262 3.45766C16.9301 4.09362 18.3337 5.5103 20.4212 4.8123L19.7733 4.15566C19.6448 4.03157 19.65 3.82476 19.7785 3.70067L22.2311 1.37399C22.2876 1.31712 22.3647 1.28609 22.447 1.28609H29.923C30.1904 1.28609 30.3394 1.60149 30.1698 1.8083L27.7686 4.73991C27.6504 4.88986 27.6812 5.10701 27.8406 5.21042C28.3202 5.52416 29.3175 6.17903 30.372 6.87148C31.1944 7.41147 32.0516 7.97431 32.7252 8.41606C33.5068 8.92793 34.5609 8.60736 34.9155 7.73874C35.3115 6.77188 35.6816 5.26729 35.6868 3.02852C35.6868 2.99232 35.692 2.95096 35.7073 2.91477L36.746 0.215825C36.8436 -0.032354 37.183 -0.0582059 37.3167 0.174462C37.8258 1.06377 38.7358 2.95096 38.7358 5.15354L39.2345 4.79162C39.3734 4.68821 39.5687 4.71923 39.6716 4.85366L40.7616 6.28069C40.8079 6.34273 40.8284 6.42546 40.8233 6.50302C40.7513 7.2734 40.5508 11.5183 44.258 13.2193C44.3248 13.2504 44.3814 13.3021 44.4122 13.3693L48.9369 22.4692C48.9575 22.5158 48.9677 22.5622 48.9677 22.6139V26.4453C48.9677 27.0295 48.7209 27.5827 48.2838 27.9705C46.51 29.5527 41.8722 33.9423 41.5894 36.9825C41.574 37.1428 41.4403 37.2669 41.2758 37.2669H33.3011C33.2497 37.2669 33.1983 37.2565 33.152 37.2307C32.6378 36.9515 29.923 33.3736 29.3729 29.9042C29.3317 29.6457 29.0078 29.5475 28.8279 29.744L27.0436 31.7294C26.8791 31.9155 26.6426 32.0189 26.3958 32.0189C26.1232 32.0189 25.8919 31.8225 25.8457 31.5536C25.64 30.3437 24.7248 27.1794 20.8891 27.1794C18.8324 27.1794 15.6292 27.9757 12.6573 28.8753C12.6573 28.8753 9.36663 29.9094 6.93462 33.2185C6.85236 33.3322 6.71867 33.3994 6.57471 33.3994H4.56946C4.29181 33.3994 4.081 33.1512 4.12213 32.8772ZM40.5199 43.2024C40.3503 43.8694 39.5739 44.1693 39.0031 43.7815C37.9543 43.068 36.3706 41.8219 34.936 39.9916C34.7253 39.7228 34.9155 39.3246 35.26 39.3246H40.9673C41.2397 39.3246 41.4351 39.578 41.3683 39.8417L40.5199 43.2024Z" fill="#0E8784"/>
</svg>
